<svg width="393" height="390" viewBox="0 0 393 390" fill="none" xmlns="http://www.w3.org/2000/svg">
<path d="M390.333 221.551C389.296 219.813 388.072 218.194 386.683 216.723C387.221 215.095 388.028 213.569 389.072 212.21C390.316 210.457 391.194 208.47 391.651 206.369C392.108 204.267 392.135 202.095 391.731 199.982C390.424 193.169 386.413 186.716 386.864 179.813C387.224 174.217 390.559 169.119 390.874 163.478C391.595 150.438 376.365 140.917 375.103 127.741C374.292 119.574 379.203 111.632 377.852 103.51C375.689 90.5603 359.511 84.2885 353.022 72.6469C349.327 66.1493 349.057 58.4785 347.525 51.2138C345.993 43.9491 342.388 36.2331 335.223 33.4356C328.058 30.638 320.803 33.4356 313.909 31.1794C302.914 27.8404 297.597 14.1231 286.331 11.8219C276.688 9.83652 266.955 17.2366 257.447 14.8902C244.379 11.6865 240.368 -3.15878 225.047 0.631502C217.657 2.52664 208.915 8.79871 201.03 13.8073C197.157 12.5829 193.438 10.9174 189.944 8.84381C187.27 7.21591 184.29 6.15561 181.189 5.7287C178.089 5.30179 174.934 5.51745 171.92 6.36213C157.815 10.8744 149.389 19.8988 137.042 25.9452C133.192 27.8558 128.947 28.8298 124.65 28.788C116.819 28.7903 109.232 31.5196 103.189 36.5083C97.1469 41.4969 93.0247 48.4344 91.5296 56.1321C91.5544 60.1875 90.3442 64.154 88.06 67.5029C85.6395 69.5168 82.7054 70.814 79.5884 71.2481C66.0699 74.4067 50.794 79.686 46.6483 92.3654C44.215 99.7203 45.9272 108.971 40.0241 114.205C37.05 116.912 32.7691 117.814 29.5698 120.296C28.2638 121.374 27.1922 122.708 26.4209 124.217C25.6496 125.725 25.1951 127.376 25.0853 129.067C24.9756 130.758 25.213 132.454 25.7828 134.049C26.3526 135.645 27.2427 137.107 28.3984 138.345C30.2009 140.24 32.9045 141.684 33.6705 144.076C35.3378 148.182 31.6879 152.288 30.6515 156.529C28.849 163.929 34.7972 170.066 39.6638 176.564C41.6015 207.427 54.9395 228.138 27.3618 248.759C-0.215941 269.38 -4.18132 275.292 7.12915 285.579C8.53493 286.812 9.50182 288.469 9.8839 290.301C10.266 292.133 10.0426 294.039 9.2472 295.732C8.08142 298.102 6.24853 300.078 3.97478 301.417C2.85559 302.107 1.96673 303.115 1.42109 304.312C0.87544 305.509 0.697701 306.842 0.910623 308.141C0.752511 311.121 1.41734 314.087 2.83229 316.714C4.24723 319.341 6.35773 321.526 8.93173 323.031C10.4648 324.057 11.6261 325.551 12.2431 327.29C12.8602 329.03 12.9001 330.923 12.3565 332.687C10.6892 338.102 9.51738 345.141 13.8433 346.675C15.8272 347.48 17.9769 347.79 20.1069 347.578C21.7263 347.283 23.3968 347.477 24.9055 348.136C26.4141 348.795 27.6927 349.888 28.5785 351.278C29.8089 353.354 30.4623 355.722 30.4711 358.136C30.4711 367.161 33.7607 379.028 45.0262 382.322C55.4805 385.39 60.2119 379.93 82.1569 383.269C90.7186 384.578 90.8536 385.977 99.6857 387.781C112.102 389.83 124.786 389.631 137.132 387.195C164.44 383.044 182.194 381.78 195.712 380.066H196.163C197.77 380.619 199.467 380.864 201.165 380.788C212.971 380.291 213.286 392.474 224.597 388.142C227.21 387.105 229.373 386.518 231.356 385.751C234.892 384.376 238.815 384.376 242.351 385.751C245.811 386.976 249.604 386.863 252.986 385.435C258.438 383.134 263.124 378.847 268.982 377.855C273.714 377.088 278.536 378.622 283.267 377.855C294.262 375.869 299.715 362.558 310.304 359.084C316.973 356.918 324.453 359.084 330.987 356.466C341.397 352.36 343.875 339.004 352.392 331.875C357.637 328.351 363.337 325.557 369.335 323.572C375.103 321.046 380.916 316.849 382.042 310.893C383.169 304.937 379.699 300.018 380.24 294.468C381.096 285.444 391.595 278.901 391.595 269.967C391.595 262.341 383.71 256.43 384.025 248.805C384.476 238.246 396.282 232.335 390.333 221.551Z" fill="#F2F2F2"/>
</svg>
