<svg width="274" height="272" viewBox="0 0 274 272" fill="none" xmlns="http://www.w3.org/2000/svg">
<g clip-path="url(#clip0)">
<path d="M1.16881 154.913C1.90739 153.698 2.7756 152.566 3.75821 151.537C3.38178 150.399 2.81588 149.332 2.0845 148.382C1.20846 147.158 0.589119 145.77 0.263535 144.3C-0.0620497 142.831 -0.0870823 141.311 0.18991 139.832C1.13724 135.068 3.94755 130.556 3.63177 125.729C3.34757 121.816 1.01097 118.251 0.821503 114.307C0.316259 105.189 10.9895 98.5319 11.8737 89.319C12.4421 83.6083 8.99999 78.0552 9.94732 72.376C11.4631 63.3209 22.7679 58.9355 27.3467 50.7953C29.9045 46.252 30.1256 40.8884 31.1993 35.8087C32.2729 30.729 34.7991 25.3338 39.8199 23.3776C44.8408 21.4215 49.9249 23.3776 54.7247 21.8001C62.4613 19.4653 66.1874 9.87382 74.0819 8.26473C80.8395 6.87649 87.6286 12.0508 94.3231 10.4102C103.481 8.17005 106.26 -2.21019 117.028 0.440079C122.206 1.76522 128.301 6.15083 133.827 9.65298C136.533 8.80252 139.129 7.63767 141.563 6.18236C143.44 5.04932 145.528 4.31105 147.7 4.01266C149.872 3.71427 152.082 3.86209 154.195 4.4471C164.047 7.60219 170.141 13.9123 178.636 18.1402C181.334 19.4761 184.309 20.1571 187.32 20.1279C192.806 20.1355 198.119 22.0461 202.353 25.5333C206.586 29.0205 209.476 33.868 210.529 39.2477C210.512 42.0833 211.36 44.8569 212.961 47.1985C214.657 48.6067 216.713 49.5137 218.897 49.8173C228.371 52.0258 239.075 55.7173 241.981 64.583C243.686 69.7258 242.486 76.1939 246.591 79.8538C248.675 81.7468 251.706 82.3777 253.917 84.113C254.834 84.8644 255.588 85.7955 256.131 86.8491C256.675 87.9027 256.996 89.0564 257.076 90.2389C257.156 91.4214 256.992 92.6077 256.596 93.7247C256.199 94.8416 255.578 95.8657 254.77 96.7334C253.475 98.0585 251.612 99.0682 251.075 100.74C249.907 103.612 252.464 106.483 253.191 109.448C254.454 114.623 250.286 118.914 246.875 123.457C245.517 145.038 236.17 159.52 255.464 173.938C274.758 188.357 277.569 192.49 269.674 199.684C268.689 200.546 268.011 201.705 267.744 202.985C267.476 204.266 267.633 205.599 268.19 206.783C268.999 208.435 270.271 209.817 271.853 210.758C272.64 211.239 273.267 211.943 273.655 212.779C274.043 213.616 274.174 214.548 274.032 215.459C274.143 217.543 273.677 219.617 272.685 221.454C271.694 223.291 270.215 224.819 268.411 225.871C267.337 226.588 266.523 227.633 266.09 228.849C265.658 230.066 265.63 231.389 266.011 232.623C267.148 236.409 267.969 241.331 264.969 242.404C263.567 242.963 262.051 243.179 260.548 243.035C259.414 242.833 258.245 242.971 257.188 243.431C256.132 243.891 255.236 244.654 254.612 245.622C253.761 247.077 253.314 248.732 253.317 250.418C253.317 256.728 251.012 265.026 243.117 267.329C235.76 269.474 232.444 265.657 217.066 267.991C211.098 268.906 211.003 269.884 204.814 271.146C196.112 272.579 187.225 272.441 178.572 270.736C159.405 267.834 146.995 266.95 137.521 265.751H137.237C136.111 266.138 134.922 266.309 133.732 266.256C125.459 265.909 125.206 274.428 117.312 271.399C115.449 270.673 113.933 270.263 112.575 269.727C110.097 268.765 107.348 268.765 104.87 269.727C102.435 270.585 99.7665 270.506 97.3861 269.506C93.5652 267.897 90.2811 264.9 86.2076 264.205C83.0498 263.669 79.4816 264.742 76.1659 264.205C68.461 262.817 64.6401 253.51 57.2193 251.08C52.5774 249.566 47.3038 251.08 42.7566 249.25C35.4306 246.379 33.7254 237.04 27.7256 232.055C24.0644 229.585 20.0796 227.631 15.884 226.25C11.842 224.483 7.73707 221.549 6.9792 217.384C6.22133 213.219 8.62113 209.78 8.24219 205.899C7.61064 199.589 0.252965 195.014 0.284543 188.767C0.284543 183.435 5.81082 179.302 5.58977 173.97C5.27399 166.587 -2.99945 162.454 1.16881 154.913Z" fill="#FFAE00"/>
</g>
<defs>
<clipPath id="clip0">
<rect width="274" height="272" fill="white"/>
</clipPath>
</defs>
</svg>
