<svg width="69" height="148" viewBox="0 0 69 148" fill="none" xmlns="http://www.w3.org/2000/svg">
<path d="M-101.271 74.8212C-100.81 74.0615 -100.268 73.3541 -99.6547 72.7112C-99.8896 71.9998 -100.243 71.3332 -100.699 70.7393C-101.246 69.9742 -101.632 69.1064 -101.836 68.1881C-102.039 67.2697 -102.054 66.3198 -101.882 65.3953C-101.29 62.4177 -99.5365 59.5979 -99.7336 56.5808C-99.9109 54.1356 -101.369 51.9074 -101.487 49.4425C-101.803 43.7436 -95.1417 39.5828 -94.5899 33.8248C-94.2352 30.2556 -96.3833 26.7849 -95.7921 23.2354C-94.8462 17.576 -87.791 14.8351 -84.9334 9.74751C-83.3371 6.90793 -83.1991 3.55565 -82.5291 0.380847C-81.859 -2.79396 -80.2825 -6.16596 -77.149 -7.38856C-74.0155 -8.61115 -70.8426 -7.38856 -67.8471 -8.37452C-63.0188 -9.83375 -60.6934 -15.8284 -55.7665 -16.8341C-51.5492 -17.7018 -47.3122 -14.4678 -43.1342 -15.4932C-37.4191 -16.8933 -35.6849 -23.3809 -28.9647 -21.7245C-25.7327 -20.8963 -21.9292 -18.1553 -18.4804 -15.9665C-16.7917 -16.498 -15.1712 -17.226 -13.6521 -18.1356C-12.4811 -18.8437 -11.178 -19.3052 -9.82252 -19.4917C-8.46703 -19.6782 -7.08774 -19.5858 -5.7692 -19.2201C0.379471 -17.2482 4.18295 -13.3044 9.48421 -10.662C11.1679 -9.827 13.0247 -9.40136 14.9037 -9.41964C18.3277 -9.41486 21.6438 -8.22078 24.2856 -6.04128C26.9274 -3.86179 28.7311 -0.832095 29.3885 2.53024C29.3776 4.30251 29.907 6.03596 30.906 7.49948C31.9646 8.37962 33.2478 8.9465 34.611 9.13622C40.5232 10.5166 47.2039 12.8237 49.017 18.3648C50.0812 21.5791 49.3322 25.6216 51.8942 27.909C53.1949 29.0922 55.0868 29.4865 56.4663 30.5711C57.0388 31.0407 57.5091 31.6226 57.8482 32.2811C58.1873 32.9396 58.388 33.6607 58.4379 34.3998C58.4877 35.1388 58.3857 35.8802 58.1381 36.5783C57.8905 37.2765 57.5027 37.9165 56.9984 38.4588C56.1904 39.287 55.0277 39.9181 54.6927 40.9632C53.9635 42.7576 55.5598 44.552 56.013 46.4056C56.8013 49.6396 54.2 52.3214 52.0716 55.161C51.2242 68.649 45.3908 77.7001 57.4319 86.7118C69.4731 95.7236 71.227 98.3069 66.3002 102.803C65.6854 103.342 65.2625 104.066 65.0954 104.866C64.9283 105.667 65.0261 106.5 65.374 107.24C65.8786 108.273 66.6729 109.136 67.66 109.724C68.1512 110.025 68.5425 110.464 68.7845 110.987C69.0265 111.51 69.1083 112.093 69.0198 112.662C69.0889 113.965 68.7982 115.261 68.1794 116.409C67.5606 117.557 66.6377 118.512 65.512 119.17C64.8415 119.618 64.3335 120.271 64.0636 121.031C63.7938 121.792 63.7765 122.619 64.0142 123.39C64.7237 125.756 65.236 128.832 63.3638 129.503C62.4887 129.852 61.5428 129.988 60.6049 129.897C59.8968 129.771 59.1671 129.857 58.5079 130.145C57.8486 130.433 57.2892 130.909 56.8999 131.514C56.3687 132.423 56.0897 133.458 56.0918 134.512C56.0918 138.455 54.6532 143.642 49.7264 145.081C45.1346 146.422 43.0654 144.036 33.4679 145.495C29.7433 146.067 29.6841 146.678 25.8215 147.467C20.3912 148.363 14.8444 148.276 9.44476 147.211C-2.51756 145.397 -10.2625 144.844 -16.1747 144.095H-16.352C-17.0549 144.337 -17.7971 144.444 -18.5396 144.411C-23.7029 144.194 -23.8606 149.518 -28.7874 147.625C-29.9501 147.171 -30.8961 146.915 -31.7435 146.58C-33.2901 145.979 -35.0054 145.979 -36.5519 146.58C-38.0719 147.116 -39.7371 147.067 -41.2227 146.442C-43.6073 145.436 -45.6568 143.563 -48.199 143.129C-50.1697 142.794 -52.3967 143.464 -54.4659 143.129C-59.2745 142.261 -61.6591 136.444 -66.2903 134.926C-69.1872 133.979 -72.4784 134.925 -75.3162 133.782C-79.8883 131.987 -80.9525 126.151 -84.6969 123.035C-86.9818 121.491 -89.4687 120.27 -92.0871 119.406C-94.6097 118.302 -97.1715 116.468 -97.6445 113.865C-98.1175 111.262 -96.6198 109.113 -96.8563 106.687C-97.2504 102.744 -101.842 99.8844 -101.823 95.9799C-101.823 92.6474 -98.3737 90.0641 -98.5116 86.7316C-98.7087 82.1173 -103.872 79.5341 -101.271 74.8212Z" fill="#FFAE00"/>
</svg>
