<svg width="300" height="40" viewBox="0 0 300 40" fill="none" xmlns="http://www.w3.org/2000/svg">
<g clip-path="url(#clip0)">
<path d="M0 11.7978H3.36144L4.87463 15.2549C6.38783 12.7929 8.71102 10.8322 13.7734 11.4182V17.8607C8.2508 17.2931 7.3819 20.2785 7.3819 24.3548V35.972H0V11.7978Z" fill="#2E294D"/>
<path d="M14.8152 28.9692C14.8152 24.3253 17.9889 22.383 24.756 21.6716L31.1033 21.0082C31.1033 17.787 30.0614 16.7439 26.8398 16.7439C23.8098 16.7439 22.9593 18.1666 22.9593 20.1089H15.7615C15.7615 14.949 17.8453 11.3887 26.6521 11.3887C36.961 11.3887 38.4852 16.0326 38.4852 22.2871V35.972H35.1716L33.4228 32.1831C31.7623 34.9326 29.1593 36.3995 24.8517 36.3995C19.1708 36.3922 14.8152 34.0223 14.8152 28.9692ZM26.3686 31.1806C29.6822 31.1806 31.1549 29.2383 31.1033 25.8254L26.3686 26.3893C23.4232 26.721 22.5322 27.5282 22.5322 28.6633C22.5322 30.1376 23.6699 31.1806 26.3686 31.1806Z" fill="#2E294D"/>
<path d="M41.5632 23.8831C41.5632 17.529 44.1662 11.3703 53.8713 11.3703C61.6362 11.3703 65.3289 15.3987 65.3289 21.797H57.8955C57.6194 18.6679 56.4743 17.5438 53.7277 17.5438C49.9429 17.5438 48.901 19.8215 48.901 23.8499C48.901 27.8784 49.8472 30.2482 53.7277 30.2482C56.5701 30.2482 57.612 28.8735 57.8955 26.0282H65.3289C65.3289 32.4265 61.7761 36.407 54.0149 36.407C44.1184 36.3922 41.5632 30.2335 41.5632 23.8831Z" fill="#2E294D"/>
<path d="M79.5295 27.2444H86.6758C86.6758 29.5222 87.7178 31.037 91.4105 31.037C94.3559 31.037 95.3868 29.9939 95.3868 28.7629C95.3868 25.0183 79.9235 27.6572 79.9235 19.1433C79.9235 14.8274 83.0935 11.3703 91.046 11.3703C99.2858 11.3703 101.889 14.3557 101.889 20.0906H95.0555C95.0555 17.9566 94.0614 16.5818 91.0313 16.5818C88.1927 16.5818 87.3496 17.389 87.3496 18.7158C87.3496 22.4015 102.739 19.5672 102.739 28.6671C102.739 32.3527 99.5656 36.407 91.6609 36.407C83.1745 36.3922 79.5295 33.8823 79.5295 27.2444Z" fill="#2E294D"/>
<path d="M106.322 11.7978H109.683L111.436 15.067C112.54 13.1246 114.845 11.3813 118.821 11.3813C121.767 11.3813 124.219 12.2327 125.78 14.8864C126.49 13.6554 128.574 11.3813 132.646 11.3813C139.413 11.3813 140.551 15.9773 140.551 21.4284V35.972H133.022V21.2736C133.022 19.2834 132.654 17.6248 130.135 17.6248C127.617 17.6248 127.153 19.2834 127.153 21.2736V35.972H119.72V21.2736C119.72 19.2834 119.351 17.6248 116.774 17.6248C114.197 17.6248 113.696 19.2834 113.696 21.2736V35.972H106.322V11.7978Z" fill="#2E294D"/>
<path d="M177.232 11.7978H180.59L182.339 15.067C183.443 13.1246 185.748 11.3813 189.724 11.3813C192.67 11.3813 195.122 12.2327 196.686 14.8864C197.393 13.6554 199.477 11.3813 203.549 11.3813C210.32 11.3813 211.454 15.9773 211.454 21.4284V35.972H203.932V21.2736C203.932 19.2834 203.564 17.6248 201.046 17.6248C198.527 17.6248 198.06 19.2834 198.06 21.2736V35.972H190.63V21.2736C190.63 19.2834 190.262 17.6248 187.685 17.6248C185.107 17.6248 184.61 19.2834 184.61 21.2736V35.972H177.232V11.7978Z" fill="#2E294D"/>
<path d="M214.771 23.8831C214.771 17.6175 217.231 11.3703 227.175 11.3703C236.453 11.3703 238.772 17.6728 238.772 24.0232C238.788 24.7358 238.756 25.4488 238.677 26.1571H222.194C222.238 29.3784 223.755 31.1807 226.98 31.1807C229.679 31.1807 230.816 30.0418 231.1 28.6671H238.831C238.404 33.123 234.664 36.407 227.326 36.407C217.186 36.3922 214.771 30.2335 214.771 23.8831ZM231.103 21.2294C231.103 18.7195 229.922 16.7771 226.796 16.7771C223.85 16.7771 222.249 18.1961 222.249 21.2294H231.103Z" fill="#2E294D"/>
<path d="M243.791 28.1474V17.7207H240.002V13.6922L243.791 11.7978V5.63539H250.937V11.7978H257.284V17.7207H251.128V27.3882C251.128 29.231 251.743 30.7532 257.284 30.1856V36.1563C246.394 36.8677 243.791 34.7337 243.791 28.1474Z" fill="#2E294D"/>
<path d="M260.738 11.8236H264.099L265.612 15.2807C267.129 12.8187 267.821 11.6946 273.042 11.8125V18.2551C267.302 18.2551 268.123 20.3043 268.123 24.3806V35.9941H260.738V11.8236Z" fill="#2E294D"/>
<path d="M174.868 22.9137C174.758 22.3572 174.43 21.8301 174.467 21.2662C174.5 20.8092 174.773 20.3927 174.795 19.932C174.854 18.8669 173.609 18.0892 173.506 17.013C173.44 16.3459 173.841 15.6972 173.731 15.0338C173.554 13.976 172.236 13.4637 171.702 12.5128C171.404 11.9821 171.378 11.3555 171.253 10.7621C171.128 10.1687 170.833 9.53848 170.248 9.30997C169.662 9.08146 169.07 9.30997 168.51 9.12569C167.608 8.85295 167.174 7.73251 166.253 7.54454C165.465 7.38237 164.674 7.98682 163.893 7.79517C162.825 7.53349 162.501 6.3209 161.246 6.6305C160.642 6.7853 159.932 7.2976 159.287 7.70671C158.972 7.60736 158.669 7.4713 158.385 7.30129C158.166 7.16893 157.923 7.08268 157.67 7.04782C157.417 7.01297 157.159 7.03024 156.913 7.09858C155.764 7.46715 155.053 8.20428 154.063 8.69815C153.749 8.85501 153.402 8.93461 153.05 8.93035C152.411 8.93124 151.791 9.15443 151.298 9.56179C150.804 9.96915 150.467 10.5354 150.344 11.1639C150.346 11.4951 150.247 11.8191 150.061 12.0926C149.863 12.2578 149.624 12.3639 149.369 12.3985C148.264 12.6565 147.016 13.0878 146.677 14.1234C146.478 14.7242 146.618 15.4798 146.14 15.9073C145.897 16.1284 145.543 16.2022 145.286 16.4049C145.179 16.4926 145.091 16.6014 145.027 16.7245C144.964 16.8476 144.927 16.9823 144.917 17.1205C144.908 17.2586 144.927 17.3972 144.973 17.5277C145.019 17.6581 145.092 17.7778 145.186 17.8791C145.337 18.0339 145.554 18.1519 145.617 18.3472C145.753 18.6826 145.455 19.018 145.37 19.3644C145.216 20.0021 145.768 20.5254 146.18 21.0967C146.18 21.0967 146.18 21.1336 146.18 21.1557C146.07 24.1669 147.686 26.0428 145.186 27.9152C142.977 29.5811 142.609 30.0823 143.533 30.9227C143.648 31.0233 143.727 31.1587 143.758 31.3083C143.789 31.4579 143.771 31.6136 143.706 31.7519C143.611 31.9455 143.461 32.1069 143.275 32.2163C143.184 32.2727 143.111 32.355 143.067 32.4528C143.022 32.5506 143.008 32.6594 143.025 32.7655C143.012 33.0089 143.066 33.2512 143.182 33.4658C143.298 33.6803 143.47 33.8589 143.68 33.9818C143.806 34.0655 143.9 34.1876 143.951 34.3297C144.001 34.4718 144.005 34.6264 143.96 34.7705C143.824 35.2128 143.732 35.7877 144.082 35.913C144.244 35.9788 144.419 36.0041 144.593 35.9868C144.726 35.9627 144.862 35.9785 144.985 36.0324C145.109 36.0862 145.213 36.1755 145.286 36.289C145.387 36.4581 145.441 36.6518 145.44 36.8492C145.44 37.5863 145.709 38.5556 146.629 38.8247C147.487 39.0753 147.87 38.6294 149.663 38.9021C150.363 39.009 150.374 39.1232 151.095 39.2707C152.11 39.4381 153.146 39.4218 154.155 39.2228C157.726 38.6773 159.309 38.7399 160.561 38.2903C162.291 38.0832 163.945 37.4653 165.388 36.488C166.227 36.2742 166.673 35.2533 167.512 34.9769C168.057 34.8 168.668 34.9769 169.202 34.7668C170.053 34.4314 170.255 33.3368 170.951 32.7544C171.38 32.4677 171.846 32.2408 172.335 32.08C172.807 31.8699 173.282 31.5271 173.374 31.0443C173.466 30.5615 173.182 30.1524 173.226 29.699C173.296 28.9619 174.154 28.4275 174.154 27.6977C174.112 27.3652 173.985 27.0491 173.786 26.78C174.173 26.5072 174.563 26.3082 174.456 25.6411C174.416 25.3721 174.405 25.1583 174.375 24.9593C174.346 24.7802 174.355 24.5972 174.4 24.4215C174.445 24.2459 174.525 24.0814 174.636 23.9383C174.744 23.793 174.82 23.6268 174.86 23.4504C174.9 23.2741 174.903 23.0913 174.868 22.9137ZM152.778 25.6522C152.929 21.8633 154.122 19.3866 158.047 19.5561C161.831 19.7109 162.914 22.2208 162.759 26.0576C162.605 29.8944 161.286 32.3527 157.583 32.2016C153.754 32.0468 152.609 29.5332 152.782 25.6522H152.778Z" fill="#2E294D"/>
<path d="M72.663 0C75.4795 0 77.486 0.61919 77.486 4.01368C77.486 7.33077 75.4795 8.03105 72.663 8.03105C69.8464 8.03105 67.6963 7.36026 67.6963 4.01368C67.6963 0.667104 69.7986 0 72.663 0Z" fill="#2E294D"/>
<path d="M76.3888 11.6651H68.8928V36.0457H76.3888V11.6651Z" fill="#2E294D"/>
<path d="M299.959 24.1779C299.713 23.8094 298.465 24.1779 297.467 24.4949C295.792 25.0551 292.817 26.2124 288.034 28.7592C287.092 27.9262 285.928 27.7272 284.235 28.715C281.691 30.1892 282.07 32.0136 283.274 34.085C284.478 36.1563 285.851 37.2546 288.358 35.7914C290.059 34.7963 290.472 33.709 290.199 32.4965C294.901 29.6732 297.294 27.5761 298.524 26.334C300.18 24.6681 300.026 24.2701 299.959 24.1779Z" fill="#2E294D"/>
<path d="M289.327 17.3226C290.456 17.8388 291.461 18.5931 292.272 19.534C293.232 20.6552 293.897 21.9978 294.209 23.4408C294.221 23.5002 294.246 23.556 294.283 23.6038C294.321 23.6516 294.369 23.6901 294.423 23.7162C294.478 23.7423 294.538 23.7553 294.598 23.7542C294.659 23.7531 294.718 23.7379 294.772 23.7098C296.182 22.9836 297.709 22.512 299.282 22.3167C299.337 22.3092 299.389 22.2906 299.436 22.2621C299.483 22.2336 299.524 22.1958 299.556 22.1509C299.588 22.1061 299.611 22.0551 299.623 22.0013C299.634 21.9474 299.635 21.8917 299.625 21.8375C299.239 19.7919 298.391 17.8618 297.145 16.195C295.9 14.5282 294.289 13.169 292.438 12.2217C292.362 12.1803 292.274 12.1658 292.188 12.1805C292.103 12.1952 292.025 12.2383 291.966 12.3027C291.425 12.8974 290.933 13.5346 290.494 14.2082C289.961 15.0227 289.507 15.8867 289.139 16.7882C289.095 16.8843 289.09 16.9936 289.125 17.0932C289.16 17.1928 289.233 17.275 289.327 17.3226Z" fill="#2E294D"/>
<path d="M281.079 16.2243C281.808 16.8852 282.604 17.4671 283.454 17.9602C283.501 17.9889 283.554 18.0041 283.609 18.0041C283.663 18.0041 283.717 17.9889 283.763 17.9602C284.305 17.6284 284.888 17.3694 285.498 17.1899C286.189 16.9858 286.908 16.8889 287.629 16.9024C287.695 16.9037 287.759 16.8835 287.812 16.8449C287.866 16.8064 287.905 16.7515 287.924 16.6886C288.205 15.8212 288.556 14.978 288.973 14.1677C289.368 13.4075 289.821 12.6793 290.328 11.9894C290.36 11.9471 290.381 11.8973 290.389 11.8447C290.397 11.792 290.391 11.7382 290.372 11.6885C290.353 11.6387 290.322 11.5945 290.282 11.5601C290.241 11.5257 290.192 11.5022 290.14 11.4919C288.887 11.2793 287.615 11.1966 286.344 11.2449C284.025 11.3113 281.223 11.8309 279.161 13.6185C279.103 13.671 279.066 13.7431 279.057 13.8213C279.048 13.8994 279.068 13.9781 279.113 14.0423C279.692 14.8357 280.351 15.5669 281.079 16.2243Z" fill="#2E294D"/>
<path d="M281.97 18.7748C281.359 18.432 281.01 17.9418 280.295 17.3411C279.488 16.658 278.766 15.8796 278.145 15.0228C278.115 14.9824 278.077 14.9496 278.032 14.9269C277.987 14.9043 277.938 14.8925 277.887 14.8925C277.837 14.8925 277.788 14.9043 277.743 14.9269C277.698 14.9496 277.66 14.9824 277.63 15.0228C276.819 16.0775 276.165 17.2445 275.69 18.4873C275.234 19.688 274.946 20.9454 274.832 22.2246C274.825 22.3002 274.844 22.3758 274.886 22.4388C274.929 22.5019 274.991 22.5485 275.064 22.571C275.928 22.8214 276.817 22.9784 277.714 23.0391C278.565 23.1134 279.421 23.0775 280.262 22.9322C280.329 22.9205 280.391 22.8878 280.439 22.8388C280.486 22.7899 280.517 22.7271 280.527 22.6595C280.611 22.1223 280.757 21.5966 280.962 21.0931C281.235 20.439 281.608 19.8311 282.066 19.2908C282.099 19.2527 282.123 19.2076 282.137 19.159C282.15 19.1103 282.152 19.0593 282.143 19.0097C282.133 18.9601 282.113 18.9132 282.083 18.8725C282.054 18.8319 282.015 18.7985 281.97 18.7748Z" fill="#2E294D"/>
<path d="M279.997 28.6597C280.039 28.6349 280.073 28.5983 280.095 28.5544C280.116 28.5105 280.124 28.4613 280.118 28.4128C280.032 27.653 279.991 26.8886 279.997 26.124C279.997 25.5895 280.023 24.9003 280.063 24.4322C280.069 24.3925 280.064 24.3521 280.05 24.3145C280.036 24.2769 280.014 24.2432 279.984 24.2163C279.954 24.1895 279.918 24.1703 279.88 24.1604C279.841 24.1505 279.8 24.1502 279.761 24.1595C279.168 24.3526 278.543 24.4301 277.92 24.388C277.015 24.3542 276.116 24.2208 275.24 23.99C275.2 23.9809 275.158 23.9818 275.118 23.9928C275.079 24.0038 275.042 24.0244 275.012 24.0528C274.982 24.0813 274.96 24.1166 274.947 24.1558C274.934 24.195 274.931 24.2368 274.938 24.2774C275.113 25.4182 275.43 26.5325 275.881 27.5945C276.141 28.1732 276.445 28.7313 276.79 29.2641C276.812 29.2974 276.841 29.3249 276.876 29.3441C276.911 29.3634 276.949 29.3739 276.989 29.3747C277.6 29.388 278.21 29.3223 278.804 29.1794C279.236 29.0998 279.644 28.922 279.997 28.6597Z" fill="#2E294D"/>
<path d="M280.976 32.7508C280.823 32.0778 280.786 31.3835 280.866 30.6979C280.878 30.5964 280.864 30.4934 280.824 30.3994C280.784 30.3054 280.719 30.2237 280.637 30.1627C280.555 30.1016 280.459 30.0634 280.357 30.0519C280.256 30.0404 280.153 30.056 280.06 30.0971C279.92 30.1561 279.776 30.2114 279.621 30.2667C279.048 30.4659 278.449 30.5837 277.843 30.6168C277.819 30.6186 277.795 30.627 277.776 30.6412C277.756 30.6555 277.74 30.6749 277.731 30.6974C277.721 30.7199 277.718 30.7445 277.722 30.7687C277.725 30.7928 277.735 30.8155 277.751 30.8343C278.16 31.3244 278.624 31.8331 279.121 32.3638C279.796 33.089 280.535 33.7514 281.33 34.343C281.353 34.3616 281.383 34.3715 281.413 34.3708C281.443 34.3702 281.471 34.359 281.494 34.3394C281.517 34.3197 281.532 34.2928 281.537 34.2632C281.542 34.2335 281.536 34.2031 281.521 34.1771C281.28 33.7267 281.097 33.2474 280.976 32.7508Z" fill="#2E294D"/>
</g>
<defs>
<clipPath id="clip0">
<rect width="300" height="39.3665" fill="white"/>
</clipPath>
</defs>
</svg>
